<svg viewBox="0 0 40 40" fill="none" xmlns="http://www.w3.org/2000/svg">
<g id="&#230;&#157;&#131;&#233;&#153;&#144;&#229;&#174;&#161;&#230;&#137;&#185; 1">
<path id="Vector" d="M20.5454 23.1818V22.3891C21.7486 21.6316 22.9111 20.3013 23.5432 18.6681C23.9921 18.479 24.3146 17.9435 24.575 16.9893C24.7764 16.2488 24.4529 15.7611 24.0168 15.4912C23.8025 12.005 21.7079 10 18.5 10C15.2461 10 13.0529 12.0634 12.8836 15.6421C12.4882 15.9597 12.2343 16.4676 12.4325 17.1923C12.7143 18.2261 13.0604 18.819 13.5393 19.0464C14.2164 20.5138 15.3221 21.7038 16.4546 22.4008V23.1818C13.3068 23.5112 11 24.5811 11 25.8509C11 27.383 26 27.383 26 25.8509C26 24.5811 23.6932 23.5112 20.5454 23.1818V23.1818Z" fill="#29B49D"/>
<path id="Rectangle 543441 (Stroke)" fill-rule="evenodd" clip-rule="evenodd" d="M8 8V29H29V8H8ZM7 5C5.89543 5 5 5.89543 5 7V30C5 31.1046 5.89543 32 7 32H30C31.1046 32 32 31.1046 32 30V7C32 5.89543 31.1046 5 30 5H7Z" fill="#52C3AF"/>
<path id="Rectangle 543442 (Stroke)" fill-rule="evenodd" clip-rule="evenodd" d="M35 6.5C35.8284 6.5 36.5 7.17157 36.5 8V33C36.5 34.933 34.933 36.5 33 36.5H8C7.17157 36.5 6.5 35.8284 6.5 35C6.5 34.1716 7.17157 33.5 8 33.5H33C33.2761 33.5 33.5 33.2761 33.5 33V8C33.5 7.17157 34.1716 6.5 35 6.5Z" fill="#A3E0D4"/>
</g>
</svg>
